<svg width="89" height="89" viewBox="0 0 89 89" fill="none" xmlns="http://www.w3.org/2000/svg">
<circle cx="44.5" cy="44.5" r="44.5" fill="#89C6A3" fill-opacity="0.2"/>
<path d="M39.4561 44.127C41.7219 43.0715 44.0885 42.7151 46.5635 43.0439L46.5625 43.0449C47.2338 43.1255 47.938 43.2204 48.5908 43.415L48.5947 43.416C49.3798 43.6633 50.1346 44.0068 50.873 44.3418C51.6282 44.6858 52.308 45.1527 52.9434 45.6553L53.5654 46.167L53.5713 46.1709C53.6029 46.1993 53.6243 46.2149 53.6387 46.2227C53.6452 46.2261 53.65 46.2277 53.6523 46.2285C53.6545 46.2292 53.6561 46.2295 53.6562 46.2295C53.6567 46.2295 53.6578 46.2297 53.6592 46.2295C53.6616 46.2292 53.6665 46.228 53.6738 46.2256C53.6895 46.2204 53.7143 46.2096 53.751 46.1865L53.752 46.1855C55.7929 44.9164 58.021 44.4747 60.4111 44.8467H60.4121C61.3857 44.9988 62.2875 45.3028 63.1445 45.7295L63.3877 45.8555C63.79 46.0742 64.1732 46.3338 64.5352 46.6025L64.959 46.9268V46.9277C65.8532 47.6337 66.5486 48.5077 67.085 49.4717L67.3057 49.8896L67.4961 50.2969C67.9174 51.2553 68.1701 52.2721 68.1826 53.3457L68.1992 54.793C68.2027 55.2748 68.2032 55.7572 68.1963 56.2432C68.1941 57.3953 67.1005 58.3184 65.9814 58.3037V58.3047C64.631 58.2913 63.2812 58.2916 61.9326 58.2949L57.8896 58.3047H57.7559V58.5342C57.7262 59.4168 57.3955 60.1992 56.6006 60.7236L56.5996 60.7246C56.1164 61.0403 55.5616 61.2481 54.9258 61.2344V61.2363C50.4264 61.2229 45.914 61.2363 41.4131 61.2363H35.0889C34.4676 61.2363 33.9222 61.0958 33.4639 60.8076C33.0053 60.5193 32.6505 60.0926 32.3936 59.5459L32.3916 59.543C32.3239 59.3937 32.2884 59.2386 32.2617 59.0938C32.2461 59.0093 32.2319 58.9329 32.2188 58.8564H24.0176C23.1428 58.8564 22.4541 58.4945 22.0205 57.7812C21.8271 57.4649 21.7374 57.0548 21.7373 56.6973C21.7373 55.5186 21.7236 54.324 21.8066 53.1299V53.1279C21.8926 52.0193 22.2785 50.987 22.8428 50.0469L22.8438 50.0449C23.0891 49.6442 23.3422 49.2306 23.6387 48.8428C24.2584 48.0146 25.0116 47.2887 25.9404 46.7705H25.9414C26.5888 46.4136 27.271 46.0087 27.9961 45.7578C28.6822 45.5197 29.4328 45.41 30.1348 45.3291H30.1357C31.4766 45.177 32.8025 45.3293 34.0693 45.7432H34.0684C34.3954 45.8433 34.7041 45.9842 34.998 46.1299C35.2944 46.2768 35.5647 46.4221 35.8496 46.5527C35.8555 46.5525 35.8646 46.553 35.876 46.5508C35.8908 46.5479 35.905 46.5435 35.916 46.5391C35.9186 46.538 35.9202 46.536 35.9219 46.5352C36.9763 45.5586 38.1321 44.7416 39.4561 44.127ZM45.5703 44.8584C43.2206 44.7354 41.0937 45.3387 39.1289 46.5342L38.7383 46.7812C37.9223 47.3182 37.2158 47.987 36.6016 48.7373L36.3438 49.0635C35.7405 49.8518 35.2587 50.7046 34.9111 51.6348V51.6367C34.4695 52.7909 34.2546 53.9714 34.2412 55.207V58.5391C34.2412 58.6367 34.2436 58.7055 34.2568 58.7607L34.2734 58.8125L34.2773 58.8203L34.2803 58.8281C34.3485 59.012 34.4303 59.1082 34.5332 59.167C34.6456 59.2311 34.8174 59.2705 35.1025 59.2705H44.3682L44.3545 59.2568H51.6475C52.7623 59.2568 53.8677 59.2702 54.9766 59.2568C55.2966 59.2507 55.4715 59.177 55.5674 59.082C55.6604 58.9897 55.7258 58.8308 55.7197 58.5439V58.542C55.706 57.3595 55.6922 56.1717 55.7197 54.9834C55.7461 53.6581 55.4147 52.4034 54.9023 51.1875C54.3554 49.8933 53.513 48.7519 52.4785 47.7773L52.1611 47.4922C51.4083 46.8437 50.5663 46.2999 49.6533 45.8867L49.1611 45.6787C48.0084 45.2178 46.824 44.9283 45.5703 44.8594V44.8584ZM32.0703 47.2773C29.4857 46.9902 27.2994 47.7837 25.5293 49.6357C24.5138 50.6956 23.9307 52.0014 23.7578 53.4561C23.6495 54.4516 23.6921 55.4429 23.6641 56.4746C23.6647 56.7393 23.705 56.806 23.7266 56.8271C23.7501 56.8502 23.8232 56.8906 24.0996 56.8906H32.0977C32.1405 56.8906 32.1847 56.8894 32.2314 56.8887C32.0356 53.7095 32.6154 50.7301 34.5869 48.0898C33.7807 47.6482 32.953 47.3828 32.0703 47.2773ZM60.1934 46.791C58.8166 46.5687 57.4406 46.6503 56.1504 47.2051L56.1475 47.207C55.9291 47.2978 55.7124 47.4019 55.4863 47.5127C55.3529 47.5781 55.2139 47.6427 55.0732 47.71C57.103 50.2786 57.8717 53.1644 57.7646 56.3389H65.9844C66.1477 56.332 66.2007 56.2974 66.2188 56.2793C66.2351 56.263 66.2695 56.214 66.2695 56.0518V53.5508C66.2695 53.1893 66.1927 52.8271 66.1221 52.4395V52.4385C65.9235 51.3759 65.4874 50.4055 64.8135 49.5508V49.5498C64.1569 48.7094 63.3912 48.0016 62.4248 47.5664H62.4238C61.6834 47.2305 60.9407 46.9205 60.1934 46.792V46.791Z" fill="#138D47" stroke="#138D47" stroke-width="0.5"/>
<path d="M44.7471 27.75C48.7207 27.7639 51.8415 30.8955 51.8418 34.6416C51.8418 38.4579 48.6355 41.5479 44.7188 41.5479C40.8433 41.5478 37.6095 38.4584 37.6094 34.6289V34.6279L37.6201 34.2773C37.8222 30.6754 40.9102 27.7366 44.7471 27.75ZM39.6045 34.6289C39.6046 37.4528 41.8842 39.5956 44.7188 39.5957C47.5421 39.5957 49.8336 37.4905 49.8467 34.6543V34.6533C49.8727 31.9249 47.5668 29.6885 44.7188 29.6885C41.9235 29.6886 39.5918 31.8732 39.6045 34.627V34.6289Z" fill="#138D47" stroke="#138D47" stroke-width="0.5"/>
<path d="M58.8916 32.293C62.0298 32.293 64.4634 34.74 64.4922 37.6904C64.5208 40.6129 61.9674 43.1821 58.9111 43.1318C55.863 43.2158 53.2903 40.6567 53.3047 37.7314C53.3055 34.7246 55.7826 32.293 58.8916 32.293ZM58.8789 34.2451C56.908 34.258 55.2872 35.7953 55.2998 37.7578C55.3125 39.6412 56.934 41.1934 58.9053 41.1934C60.8411 41.1933 62.5446 39.6124 62.4561 37.7041L62.4551 37.6943V37.6846C62.5183 35.7767 60.8028 34.2325 58.8789 34.2451Z" fill="#138D47" stroke="#138D47" stroke-width="0.5"/>
<path d="M31.0693 32.6445C34.1636 32.6445 36.6843 35.1029 36.6699 38.0859V38.0869C36.6411 41.1442 34.2638 43.5101 31.0986 43.5244C28.0038 43.5385 25.5404 41.2156 25.4971 38.1152V38.0977C25.456 35.086 28.0195 32.6447 31.0693 32.6445ZM27.4922 38.0977C27.4922 39.9588 29.1032 41.5688 31.0771 41.5186L31.333 41.5117V41.5283C33.184 41.4451 34.6885 39.8807 34.6885 38.0977C34.6883 36.1337 33.0803 34.5967 31.0693 34.5967C29.0724 34.5968 27.4794 36.1068 27.4922 38.0967V38.0977Z" fill="#138D47" stroke="#138D47" stroke-width="0.5"/>
</svg>
