<svg width="89" height="89" viewBox="0 0 89 89" fill="none" xmlns="http://www.w3.org/2000/svg">
<circle cx="44.5" cy="44.5" r="44.5" fill="#89C6A3" fill-opacity="0.2"/>
<g clip-path="url(#clip0_8208_7890)">
<path d="M48.5459 47.6816C49.1576 47.6817 49.6541 48.1784 49.6543 48.79C49.6543 49.4019 49.1577 49.8984 48.5459 49.8984H28.708C26.1499 49.8986 24.0666 51.982 24.0664 54.54V56.457C24.0664 57.9593 25.2898 59.1816 26.792 59.1816H59.375C60.8772 59.1816 62.0996 57.9593 62.0996 56.457V54.54C62.0995 53.3779 61.6676 52.2698 60.8809 51.4199C60.4641 50.9698 60.4931 50.2698 60.9424 49.8535L61.0283 49.7803C61.4751 49.441 62.1194 49.4916 62.5098 49.915L62.7217 50.1562C63.7515 51.3828 64.3163 52.9271 64.3164 54.54V56.457C64.3164 59.181 62.099 61.3984 59.375 61.3984H26.792C24.068 61.3984 21.8496 59.181 21.8496 56.457V54.54C21.8498 50.7583 24.9263 47.6818 28.708 47.6816H48.5459Z" fill="#138D47" stroke="#138D47" stroke-width="0.3"/>
<path d="M22.958 55.3496C23.5697 55.3496 24.0662 55.8463 24.0664 56.458V63.167C24.0666 64.14 24.86 64.9334 25.833 64.9336C26.8061 64.9336 27.5994 64.1401 27.5996 63.167V60.292C27.5996 59.6803 28.0963 59.1838 28.708 59.1836C29.3199 59.1836 29.8164 59.6801 29.8164 60.292V63.167C29.8162 65.3638 28.0298 67.1504 25.833 67.1504C23.6363 67.1502 21.8498 65.3637 21.8496 63.167V56.458C21.8498 55.8464 22.3464 55.3498 22.958 55.3496Z" fill="#138D47" stroke="#138D47" stroke-width="0.3"/>
<path d="M63.208 55.3496C63.8197 55.3496 64.3162 55.8463 64.3164 56.458V63.167C64.3162 65.3638 62.5298 67.1504 60.333 67.1504C58.1363 67.1502 56.3498 65.3637 56.3496 63.167V60.292C56.3496 59.6803 56.8463 59.1838 57.458 59.1836C58.0699 59.1836 58.5664 59.6801 58.5664 60.292V63.167C58.5666 64.14 59.36 64.9334 60.333 64.9336C61.3061 64.9336 62.0994 64.1401 62.0996 63.167V56.458C62.0998 55.8464 62.5964 55.3498 63.208 55.3496Z" fill="#138D47" stroke="#138D47" stroke-width="0.3"/>
<path d="M40.6318 36.1816C41.2435 36.1817 41.7401 36.6784 41.7402 37.29C41.7402 37.9017 41.2458 38.3984 40.6318 38.3984H34.1338C33.0567 38.3986 32.0515 39.0734 31.6318 40.0762L27.8174 49.2178V49.2188C27.638 49.6417 27.2254 49.8984 26.793 49.8984C26.652 49.8984 26.5082 49.8713 26.3682 49.8115V49.8125C25.8026 49.5774 25.5369 48.928 25.7715 48.3633V48.3623L29.5859 39.2197C30.3585 37.3765 32.1431 36.1818 34.1338 36.1816H40.6318Z" fill="#138D47" stroke="#138D47" stroke-width="0.3"/>
<path d="M34.458 53.4316C35.0697 53.4316 35.5662 53.9283 35.5664 54.54C35.5664 55.1519 35.0699 55.6484 34.458 55.6484H28.708C28.0963 55.6483 27.5996 55.1518 27.5996 54.54C27.5998 53.9285 28.0964 53.4318 28.708 53.4316H34.458Z" fill="#138D47" stroke="#138D47" stroke-width="0.3"/>
<path d="M57.458 53.4316C58.0697 53.4316 58.5662 53.9283 58.5664 54.54C58.5664 55.1519 58.0699 55.6484 57.458 55.6484H51.708C51.0963 55.6483 50.5996 55.1518 50.5996 54.54C50.5998 53.9285 51.0964 53.4318 51.708 53.4316H57.458Z" fill="#138D47" stroke="#138D47" stroke-width="0.3"/>
<path d="M56.1455 20.9082C56.3759 20.8307 56.6241 20.8307 56.8545 20.9082L67.3965 24.4678L67.5586 24.5371C67.9177 24.727 68.1502 25.1027 68.1504 25.5176V33.5273C68.1504 38.3019 65.4465 41.85 62.7051 44.2197C59.9631 46.59 57.1645 47.7988 56.9297 47.8975C56.7923 47.955 56.6461 47.9834 56.5 47.9834C56.3544 47.9834 56.2083 47.9544 56.0703 47.8945V47.8955C55.8331 47.7968 53.0359 46.5888 50.2949 44.2197C47.5535 41.8502 44.8496 38.3019 44.8496 33.5273V25.5176C44.8498 25.0432 45.1539 24.6206 45.6035 24.4678L56.1455 20.9082ZM47.0664 26.3135V33.5273C47.0664 37.0973 48.979 39.9155 51.1328 41.958C53.2351 43.9517 55.5535 45.1919 56.499 45.6533C57.4428 45.1913 59.7635 43.9477 61.8672 41.9512C64.0213 39.9067 65.9336 37.0884 65.9336 33.5273V26.3135L56.5 23.1289L47.0664 26.3135Z" fill="#138D47" stroke="#138D47" stroke-width="0.3"/>
<path d="M61.4658 29.7988C61.8981 29.3667 62.6009 29.3667 63.0332 29.7988C63.4655 30.2311 63.4653 30.9339 63.0332 31.3662L56.3252 38.0752L56.3242 38.0742C56.117 38.2853 55.8336 38.4004 55.542 38.4004C55.528 38.4004 55.504 38.3997 55.4795 38.3975C55.1652 38.3796 54.8729 38.23 54.6758 37.9844V37.9834L50.8418 33.1924C50.4607 32.7137 50.5383 32.0171 51.0146 31.6338C51.4639 31.274 52.1043 31.3221 52.498 31.7217L52.5732 31.8066L55.6328 35.6318L61.4658 29.7988Z" fill="#138D47" stroke="#138D47" stroke-width="0.3"/>
</g>
<defs>
<clipPath id="clip0_8208_7890">
<rect width="46" height="46" fill="white" transform="translate(22 21)"/>
</clipPath>
</defs>
</svg>
