<svg width="89" height="89" viewBox="0 0 89 89" fill="none" xmlns="http://www.w3.org/2000/svg">
<circle cx="44.5" cy="44.5" r="44.5" fill="#89C6A3" fill-opacity="0.2"/>
<g clip-path="url(#clip0_8208_7827)">
<path d="M67.8674 31.0795C67.7537 30.7373 67.659 30.3952 67.4885 30.11C66.7306 28.7414 65.5181 28.038 63.8888 28H26.5091C24.0272 28 22.701 29.0265 22.0568 31.4217C22.0379 31.4787 22.0189 31.5167 22 31.5357V57.4833C22.0568 57.6354 22.0947 57.7874 22.1326 57.9205C22.2463 58.2627 22.341 58.5858 22.4926 58.852C23.2883 60.2776 24.5198 61 26.2059 61C29.3699 61.019 32.5527 61 35.7166 61H63.6236C65.9539 61 67.3937 59.8594 67.9432 57.5974C67.9621 57.5403 67.9811 57.5023 68 57.4643V31.5167C67.9621 31.3836 67.9053 31.2316 67.8674 31.0795ZM65.7644 56.7039C65.7644 58.0346 65.0445 58.7379 63.6993 58.7379H45L26.3575 58.7569C24.9366 58.7379 24.2545 58.0536 24.2545 56.6469V32.3341C24.2545 30.9654 24.9555 30.2621 26.3196 30.2621H63.6804C65.0634 30.2621 65.7644 30.9654 65.7644 32.3341V56.7039Z" fill="#138D47"/>
<path d="M42.7265 51.4967C42.2339 50.109 41.3056 48.9685 39.8847 48.0561L39.6573 47.904L39.8278 47.6949C41.6845 45.4138 41.154 42.6764 39.6384 41.1557C38.028 39.5019 35.3945 39.2548 33.5189 40.5854C32.5337 41.2888 31.9085 42.2012 31.6433 43.3037C31.2454 44.9005 31.6054 46.3832 32.6853 47.6949L32.8369 47.866L32.5716 48.0941C32.5716 48.0941 32.4959 48.1511 32.458 48.1891C30.5445 49.4817 29.4835 51.3066 29.313 53.6067C29.2562 54.139 29.3509 54.5382 29.5782 54.7853C29.8056 55.0134 30.1845 55.1465 30.6771 55.1465H41.8929C42.3665 55.1465 42.7265 55.0134 42.9538 54.7663C43.1622 54.5382 43.238 54.177 43.2001 53.7398C43.1054 52.8844 42.9538 52.143 42.7265 51.4967ZM34.4662 42.7335C34.9398 42.2582 35.565 41.9921 36.266 41.9921C37.6491 41.9921 38.7669 43.1137 38.7858 44.5013C38.7858 45.889 37.6491 47.0296 36.266 47.0296C34.883 47.0296 33.7463 45.927 33.7463 44.5393C33.7273 43.855 33.9926 43.2087 34.4662 42.7335ZM31.757 52.8654L31.8138 52.5802C32.1927 50.7934 34.1631 49.3107 36.1903 49.2917H36.2471C38.2932 49.2917 40.2446 50.7173 40.6804 52.5802L40.7562 52.8654H31.757Z" fill="#138D47"/>
<path d="M60.5539 35.5663C60.3834 35.8514 60.1182 36.0225 59.7961 36.0795C59.6066 36.1176 59.4172 36.1176 59.1898 36.1176H30.7903C30.6009 36.1176 30.3925 36.1176 30.203 36.0795C29.6725 35.9845 29.2747 35.5093 29.2936 34.977C29.3126 34.4257 29.7104 33.9695 30.2598 33.8935C30.4304 33.8745 30.6009 33.8555 30.7714 33.8555H59.2467C60.2697 33.8555 60.535 34.2737 60.6486 34.6539C60.7623 34.958 60.7244 35.3002 60.5539 35.5663Z" fill="#138D47"/>
<path d="M60.7246 48.1489C60.7246 48.453 60.611 48.7192 60.4215 48.9283C60.1942 49.1564 59.8721 49.2894 59.5121 49.2894H49.3952C48.8836 49.2704 48.4668 48.9853 48.3153 48.5101C48.1637 48.0158 48.3153 47.5216 48.7321 47.2745C48.9405 47.1224 49.2246 47.0464 49.452 47.0464C52.8054 47.0273 56.1587 47.0273 59.5121 47.0273C60.1942 47.0273 60.7057 47.5026 60.7246 48.1489Z" fill="#138D47"/>
<path d="M60.6105 42.7496C60.4021 43.2249 60.0232 43.434 59.4358 43.434H49.4894C49.1294 43.434 48.7884 43.3009 48.5421 43.0538C48.3526 42.8637 48.239 42.5976 48.2579 42.2934C48.2579 41.6471 48.7694 41.1909 49.4894 41.1909C50.6451 41.1719 51.8197 41.1719 52.9754 41.1719H54.4721H55.9309C57.1434 41.1719 58.3559 41.1719 59.5495 41.1909C59.9853 41.1909 60.3452 41.381 60.5536 41.7041C60.7431 42.0083 60.762 42.4075 60.6105 42.7496Z" fill="#138D47"/>
<path d="M57.7888 54.0049C57.7888 54.6512 57.3151 55.1264 56.652 55.1454H53.0145H51.9156C51.0441 55.1454 50.1537 55.1454 49.2632 55.1454C48.7517 55.1264 48.3349 54.7272 48.2591 54.157C48.1833 53.6817 48.5054 53.1685 48.9601 53.0164C49.1306 52.9404 49.358 52.9214 49.6421 52.9214C51.3851 52.9023 53.1471 52.9023 54.928 52.9023H56.4247C56.4247 52.9023 56.5762 52.9023 56.652 52.9214C57.3151 52.9404 57.7888 53.3966 57.7888 54.0239V54.0049Z" fill="#138D47"/>
</g>
<defs>
<clipPath id="clip0_8208_7827">
<rect width="46" height="33" fill="white" transform="translate(22 28)"/>
</clipPath>
</defs>
</svg>
