<svg width="30" height="37" viewBox="0 0 30 37" fill="none" xmlns="http://www.w3.org/2000/svg">
<g clip-path="url(#clip0_8231_12)">
<path d="M28.8615 31.7255L25.679 29.2684V28.0845C25.679 27.5868 25.9473 27.1392 26.3807 26.9162C27.2803 26.4532 27.8399 25.5211 27.8399 24.4857V23.7827C27.8399 22.3204 26.6841 21.1306 25.2629 21.1306H19.3213C17.9009 21.1306 16.7451 22.3204 16.7451 23.7827V24.4857C16.7451 25.5211 17.304 26.4532 18.2043 26.9162C18.6369 27.1392 18.9059 27.5868 18.9059 28.0845V29.2684L15.7228 31.7255C15.0097 32.2764 14.5843 33.1523 14.5843 34.0695V35.1818C14.5843 36.1847 15.377 37 16.3505 37H28.2344C29.208 37 30 36.1847 30 35.1818V34.0695C30 33.1523 29.5746 32.2764 28.8615 31.7255ZM28.629 35.5879H15.956V34.0695C15.956 33.5947 16.1762 33.1405 16.5457 32.8554L20.0029 30.1864C20.175 30.0535 20.2769 29.8422 20.2769 29.6214V28.0845C20.2776 27.0484 19.7181 26.1171 18.8177 25.6533C18.3851 25.431 18.1168 24.9835 18.1168 24.4857V23.7827C18.1168 23.0988 18.657 22.5427 19.3213 22.5427H25.2636C25.928 22.5427 26.4682 23.0988 26.4682 23.7827V24.4857C26.4682 24.9835 26.1992 25.431 25.7673 25.6533C24.8669 26.1171 24.3073 27.0484 24.3073 28.0845V29.6214C24.3073 29.8422 24.4099 30.0535 24.5821 30.1864L28.0386 32.8554C28.4081 33.1405 28.629 33.5947 28.629 34.0695V35.5879ZM22.2921 0H2.84597C1.27699 0 0 1.31457 0 2.93046V31.8458C0 33.461 1.27699 34.7756 2.84597 34.7756H9.86871C10.2468 34.7756 10.5546 34.4587 10.5546 34.0695C10.5546 33.6803 10.2468 33.3635 9.86871 33.3635H2.84597C2.03314 33.3635 1.37169 32.6826 1.37169 31.8458V2.93046C1.37169 2.09297 2.03314 1.41206 2.84597 1.41206H22.2921C23.1057 1.41206 23.7671 2.09297 23.7671 2.93046V16.2756C23.7671 16.6648 24.0749 16.9816 24.453 16.9816C24.831 16.9816 25.1388 16.6648 25.1388 16.2756V2.93046C25.1388 1.31457 23.8618 0 22.2921 0ZM8.78829 21.6867C6.62314 21.6867 4.86118 23.4998 4.86118 25.7287C4.86118 27.9575 6.62314 29.7713 8.78829 29.7713C10.9534 29.7713 12.7147 27.9575 12.7147 25.7287C12.7147 23.4998 10.9534 21.6867 8.78829 21.6867ZM8.78829 28.3593C7.3793 28.3593 6.23287 27.1791 6.23287 25.7287C6.23287 24.2782 7.3793 23.098 8.78829 23.098C10.1973 23.098 11.3437 24.2782 11.3437 25.7287C11.3437 27.1791 10.1973 28.3593 8.78829 28.3593ZM19.0516 6.11645H6.08724C5.70916 6.11645 5.40139 6.43327 5.40139 6.82247C5.40139 7.21168 5.70916 7.5285 6.08724 7.5285H19.0516C19.4297 7.5285 19.7374 7.21168 19.7374 6.82247C19.7374 6.43327 19.4297 6.11645 19.0516 6.11645ZM19.0516 11.6775H6.08724C5.70916 11.6775 5.40139 11.9944 5.40139 12.3836C5.40139 12.7728 5.70916 13.0896 6.08724 13.0896H19.0516C19.4297 13.0896 19.7374 12.7728 19.7374 12.3836C19.7374 11.9944 19.4297 11.6775 19.0516 11.6775ZM13.6495 17.2379H6.08724C5.70916 17.2379 5.40139 17.5547 5.40139 17.9439C5.40139 18.3331 5.70916 18.6499 6.08724 18.6499H13.6495C14.0275 18.6499 14.3353 18.3331 14.3353 17.9439C14.3353 17.5547 14.0275 17.2379 13.6495 17.2379Z" fill="#138D47"/>
</g>
<defs>
<clipPath id="clip0_8231_12">
<rect width="30" height="37" fill="white"/>
</clipPath>
</defs>
</svg>
