<svg width="58" height="54" viewBox="0 0 58 54" fill="none" xmlns="http://www.w3.org/2000/svg">
<path d="M53.7377 11.2307H52.6145V5.61472C52.6145 4.12526 52.0228 2.69681 50.9696 1.64361C49.9164 0.590402 48.4879 -0.00128174 46.9985 -0.00128174H11.0561C9.56661 -0.00128174 8.13816 0.590402 7.08495 1.64361C6.03175 2.69681 5.44007 4.12526 5.44007 5.61472V11.2307H4.31687C3.42319 11.2307 2.56612 11.5857 1.9342 12.2177C1.30228 12.8496 0.947266 13.7066 0.947266 14.6003V22.4627C0.947266 23.3564 1.30228 24.2135 1.9342 24.8454C2.56612 25.4773 3.42319 25.8323 4.31687 25.8323H5.44007V43.8035C5.4398 45.0982 5.88686 46.3532 6.70557 47.3561C7.52428 48.359 8.66436 49.0483 9.93287 49.3072V51.6659C9.93287 52.2617 10.1695 52.8331 10.5908 53.2544C11.0121 53.6756 11.5835 53.9123 12.1793 53.9123H18.9185C19.5142 53.9123 20.0856 53.6756 20.5069 53.2544C20.9282 52.8331 21.1649 52.2617 21.1649 51.6659V49.4195H36.8897V51.6659C36.8897 52.2617 37.1263 52.8331 37.5476 53.2544C37.9689 53.6756 38.5403 53.9123 39.1361 53.9123H45.8753C46.471 53.9123 47.0424 53.6756 47.4637 53.2544C47.885 52.8331 48.1217 52.2617 48.1217 51.6659V49.3072C49.3902 49.0483 50.5302 48.359 51.349 47.3561C52.1677 46.3532 52.6147 45.0982 52.6145 43.8035V25.8323H53.7377C54.6313 25.8323 55.4884 25.4773 56.1203 24.8454C56.7523 24.2135 57.1073 23.3564 57.1073 22.4627V14.6003C57.1073 13.7066 56.7523 12.8496 56.1203 12.2177C55.4884 11.5857 54.6313 11.2307 53.7377 11.2307ZM11.0561 31.4483C10.1624 31.4483 9.30532 31.0933 8.6734 30.4614C8.04148 29.8295 7.68647 28.9724 7.68647 28.0787V12.3539C7.68647 12.056 7.8048 11.7703 8.01544 11.5597C8.22608 11.3491 8.51177 11.2307 8.80967 11.2307H27.9041V31.4483H11.0561ZM30.1505 11.2307H49.2449C49.5428 11.2307 49.8284 11.3491 50.0391 11.5597C50.2497 11.7703 50.3681 12.056 50.3681 12.3539V28.0787C50.3681 28.9724 50.0131 29.8295 49.3811 30.4614C48.7492 31.0933 47.8921 31.4483 46.9985 31.4483H30.1505V11.2307ZM11.0561 2.24512H46.9985C47.8921 2.24512 48.7492 2.60013 49.3811 3.23205C50.0131 3.86397 50.3681 4.72104 50.3681 5.61472V9.18649C50.0079 9.05573 49.628 8.98736 49.2449 8.98432H8.80967C8.42649 8.98736 8.04665 9.05573 7.68647 9.18649V5.61472C7.68647 4.72104 8.04148 3.86397 8.6734 3.23205C9.30532 2.60013 10.1624 2.24512 11.0561 2.24512ZM4.31687 23.5859C4.01897 23.5859 3.73328 23.4676 3.52264 23.2569C3.312 23.0463 3.19367 22.7606 3.19367 22.4627V14.6003C3.19367 14.3024 3.312 14.0167 3.52264 13.8061C3.73328 13.5955 4.01897 13.4771 4.31687 13.4771H5.44007V23.5859H4.31687ZM18.9185 51.6659H12.1793V49.4195H18.9185V51.6659ZM39.1361 51.6659V49.4195H45.8753V51.6659H39.1361ZM46.9985 47.1731H11.0561C10.1624 47.1731 9.30532 46.8181 8.6734 46.1862C8.04148 45.5543 7.68647 44.6972 7.68647 43.8035V32.5715C8.65546 33.3065 9.83987 33.7013 11.0561 33.6947H46.9985C48.2147 33.7013 49.3991 33.3065 50.3681 32.5715V43.8035C50.3681 44.6972 50.0131 45.5543 49.3811 46.1862C48.7492 46.8181 47.8921 47.1731 46.9985 47.1731ZM54.8609 22.4627C54.8609 22.7606 54.7425 23.0463 54.5319 23.2569C54.3212 23.4676 54.0356 23.5859 53.7377 23.5859H52.6145V13.4771H53.7377C54.0356 13.4771 54.3212 13.5955 54.5319 13.8061C54.7425 14.0167 54.8609 14.3024 54.8609 14.6003V22.4627Z" fill="#138D47"/>
</svg>
