<svg width="30" height="36" viewBox="0 0 30 36" fill="none" xmlns="http://www.w3.org/2000/svg">
<g clip-path="url(#clip0_8211_8174)">
<path d="M12.9019 0.425721C13.205 0.495671 13.5198 0.542305 13.8112 0.623913C14.9887 0.962006 15.9214 1.64985 16.5626 2.68745C16.7258 2.95559 16.9007 3.02554 17.1805 3.01388C18.1715 3.00222 19.1624 3.01388 20.1651 3.01388C21.0628 3.01388 21.7156 3.39861 22.0887 4.22635C22.1353 4.33128 22.3102 4.4362 22.4384 4.4362C22.9398 4.45952 23.4294 4.4362 23.9307 4.44786C24.4087 4.44786 24.6769 4.69269 24.6769 5.07741C24.6769 5.46214 24.4087 5.69531 23.9424 5.69531C23.4644 5.69531 22.9747 5.69531 22.4967 5.69531C22.2869 5.69531 22.1703 5.73028 22.0887 5.95179C21.7506 6.76788 21.1094 7.14095 20.2467 7.1526C19.2557 7.1526 18.2647 7.1526 17.2621 7.1526C17.029 7.1526 16.9007 7.22255 16.7725 7.4324C16.5043 7.87542 16.2012 8.29512 15.8864 8.73814C16.003 8.73814 16.1196 8.76146 16.2478 8.76146C17.2971 8.76146 18.3347 8.76146 19.384 8.76146C20.7596 8.76146 21.5524 9.55423 21.5524 10.9299C21.5524 12.0025 21.5524 13.0751 21.5524 14.1476C21.5524 14.3108 21.6573 14.5207 21.7972 14.614C23.8375 16.0363 26.0642 16.9806 28.5358 17.2954C29.4335 17.412 29.6433 17.6218 29.6666 18.5195C29.8182 24.407 27.7896 29.3851 23.4411 33.3839C22.6716 34.0951 21.7739 34.678 20.9345 35.3192C20.5381 35.6107 20.1534 35.599 19.7454 35.3192C18.3114 34.3866 17.0173 33.3023 15.8631 32.0316C15.7699 31.9267 15.6649 31.8217 15.4901 31.6352C15.4901 32.0316 15.4901 32.3464 15.4901 32.6495C15.4318 34.1534 14.3942 35.2959 12.8786 35.5174C11.5612 35.7156 10.1972 34.8646 9.75413 33.5472C9.63755 33.1858 9.60257 32.7777 9.59092 32.393C9.5676 31.7984 9.59092 31.1922 9.59092 30.5976C9.12458 30.481 8.6699 30.3994 8.23854 30.2595C5.47551 29.3735 3.55188 26.8436 3.52856 23.929C3.49359 19.5338 3.50524 15.1386 3.52856 10.7434C3.52856 9.56589 4.37962 8.76146 5.59209 8.7498C6.65301 8.73814 7.71392 8.7498 8.76317 8.7498C8.90307 8.7498 9.04297 8.7498 9.18287 8.7498C8.84478 8.22517 8.53 7.72386 8.19191 7.24587C8.13362 7.16426 7.95874 7.1526 7.84216 7.1526C6.88617 7.1526 5.93019 7.14095 4.9742 7.1526C4.02987 7.1526 3.34203 6.79119 2.94564 5.90516C2.89901 5.81189 2.73579 5.71862 2.63087 5.71862C2.18785 5.69531 1.74483 5.68365 1.30181 5.71862C0.905426 5.74194 0.59065 5.63701 0.369141 5.29892V4.90254C0.578991 4.55279 0.882109 4.4362 1.29015 4.44786C1.72151 4.47118 2.15287 4.44786 2.58423 4.45952C2.78242 4.45952 2.89901 4.42454 2.99228 4.20303C3.34203 3.39861 3.97158 3.01388 4.84596 3.01388C5.86024 3.01388 6.88617 3.01388 7.90045 3.01388C8.18025 3.01388 8.34347 2.94393 8.49503 2.6991C9.1479 1.62653 10.1039 0.938689 11.3047 0.600597C11.5728 0.518988 11.8643 0.472354 12.1441 0.414062C12.4006 0.414062 12.6687 0.414062 12.9252 0.414062L12.9019 0.425721ZM28.3842 18.5545C25.3764 18.1931 22.7532 16.9223 20.3283 15.1619C17.8917 16.9223 15.2685 18.1931 12.2723 18.5545C11.8876 24.0106 14.5224 30.5859 20.3166 34.2117C25.936 30.7025 28.7223 24.3254 28.3842 18.5545ZM20.2816 13.7279C20.2816 12.8186 20.2816 11.8509 20.2816 10.8833C20.2816 10.277 20.0368 10.0206 19.4189 10.0206C14.8139 10.0206 10.2205 10.0206 5.61541 10.0206C5.02083 10.0206 4.76435 10.2887 4.76435 10.8949C4.76435 15.2085 4.74103 19.5221 4.76435 23.8474C4.77601 25.7594 5.61541 27.2983 7.20095 28.3942C7.90045 28.8838 8.68156 29.1869 9.54428 29.2919V28.4641C9.38107 28.4641 9.25282 28.4641 9.12458 28.4641C7.25924 28.5574 5.68536 26.7387 6.44315 24.7451C6.80456 23.7658 7.08437 22.7632 7.39914 21.7605C7.93543 20.0118 9.06629 18.8343 10.7801 18.2281C10.8733 18.1931 11.0016 18.1348 11.0132 18.0648C11.1531 17.5286 11.5612 17.3653 12.0392 17.307C14.8255 16.9806 17.2621 15.8031 19.5122 14.1943C19.7454 14.031 19.9902 13.8911 20.2816 13.7163V13.7279ZM10.9783 19.4988C9.81242 20.0118 9.04297 20.7929 8.6699 21.9121C8.29684 23.0197 7.94709 24.1505 7.59733 25.2697C7.2709 26.319 7.91211 27.1934 9.01966 27.2167C9.97564 27.2283 10.9316 27.2167 11.876 27.2167C12.1091 27.2167 12.3423 27.2167 12.6454 27.2167C11.5612 24.7451 11.0016 22.2152 10.9783 19.4988ZM10.8733 28.4758C10.85 28.569 10.8267 28.6157 10.8267 28.674C10.8267 30.003 10.8034 31.3437 10.8267 32.6728C10.85 33.5938 11.5495 34.2816 12.4472 34.3166C13.2983 34.3516 14.1377 33.722 14.1727 32.836C14.2309 31.437 14.5341 29.9797 13.4498 28.7789C13.4032 28.7323 13.3915 28.6506 13.3449 28.6157C13.2866 28.5574 13.205 28.4874 13.1234 28.4874C12.3656 28.4874 11.6078 28.4874 10.8617 28.4874L10.8733 28.4758ZM12.5172 8.77312C14.4525 8.78478 16.038 7.22255 16.0497 5.27561C16.0613 3.30534 14.4991 1.70814 12.5521 1.69648C10.6285 1.68483 9.008 3.25871 8.98468 5.18234C8.96136 7.16426 10.5352 8.76146 12.5172 8.77312ZM17.2854 4.28464V5.90516C18.3464 5.90516 19.3606 5.92847 20.3749 5.90516C20.7946 5.90516 20.9928 5.56706 20.9812 5.0541C20.9812 4.61108 20.7596 4.30796 20.3633 4.2963C19.3373 4.27298 18.3114 4.2963 17.2854 4.2963V4.28464ZM7.76055 4.28464C6.79291 4.28464 5.82526 4.28464 4.86927 4.28464C4.29801 4.28464 4.06485 4.52947 4.06485 5.10073C4.06485 5.66033 4.30967 5.90516 4.88093 5.91682C5.75531 5.91682 6.62969 5.91682 7.50407 5.91682C7.58568 5.91682 7.67894 5.8935 7.77221 5.88184V4.28464H7.76055Z" fill="#138D47"/>
<path d="M19.3131 26.0976C19.8961 25.4098 20.4673 24.7569 21.0269 24.0924C21.808 23.1714 22.5775 22.262 23.3586 21.341C23.6384 21.0146 23.9998 20.9446 24.2913 21.1545C24.6177 21.3876 24.6177 21.7957 24.2913 22.1804C23.2653 23.3929 22.2277 24.617 21.2018 25.8295C20.8171 26.2841 20.4323 26.7505 20.0359 27.2052C19.5813 27.7298 19.0683 27.7414 18.6136 27.2052C18.1007 26.6106 17.5877 26.016 17.0864 25.4214C16.7833 25.06 16.7716 24.7103 17.0631 24.4538C17.3662 24.1856 17.7159 24.2439 18.0424 24.617C18.4621 25.095 18.8701 25.5846 19.3131 26.1093V26.0976Z" fill="#138D47"/>
<path d="M12.5279 8.11863C10.9307 8.11863 9.625 6.83621 9.625 5.23901C9.625 3.66513 10.8958 2.37105 12.4813 2.34773C14.1018 2.33608 15.4076 3.63016 15.4076 5.23901C15.4076 6.81289 14.1135 8.10697 12.5396 8.10697L12.5279 8.11863ZM12.5279 3.6185C11.6302 3.6185 10.8958 4.32966 10.8958 5.22735C10.8958 6.13671 11.6302 6.87118 12.5396 6.87118C13.4256 6.87118 14.1601 6.12505 14.1601 5.23901C14.1601 4.34132 13.4373 3.6185 12.5396 3.6185H12.5279Z" fill="#138D47"/>
</g>
<defs>
<clipPath id="clip0_8211_8174">
<rect width="29.3092" height="35.15" fill="white" transform="translate(0.345703 0.425781)"/>
</clipPath>
</defs>
</svg>
