<svg width="35" height="34" viewBox="0 0 35 34" fill="none" xmlns="http://www.w3.org/2000/svg">
<mask id="path-1-inside-1_7244_22703" fill="white">
<path d="M32.7982 7.26474H32.1028V3.78786C32.1028 2.86573 31.7365 1.98137 31.0844 1.32933C30.4324 0.677287 29.548 0.310974 28.6259 0.310974H6.37387C5.45174 0.310974 4.56738 0.677287 3.91534 1.32933C3.2633 1.98137 2.89698 2.86573 2.89698 3.78786V7.26474H2.20161C1.64833 7.26474 1.11772 7.48453 0.726492 7.87575C0.335267 8.26698 0.115479 8.79759 0.115479 9.35087V14.2185C0.115479 14.7718 0.335267 15.3024 0.726492 15.6936C1.11772 16.0848 1.64833 16.3046 2.20161 16.3046H2.89698V27.4307C2.89682 28.2322 3.17359 29.0091 3.68046 29.6301C4.18733 30.251 4.89316 30.6777 5.67849 30.838V32.2983C5.67849 32.6671 5.82501 33.0209 6.08583 33.2817C6.34665 33.5425 6.70039 33.689 7.06924 33.689H11.2415C11.6104 33.689 11.9641 33.5425 12.2249 33.2817C12.4857 33.0209 12.6323 32.6671 12.6323 32.2983V30.9075H22.3675V32.2983C22.3675 32.6671 22.514 33.0209 22.7749 33.2817C23.0357 33.5425 23.3894 33.689 23.7583 33.689H27.9305C28.2994 33.689 28.6531 33.5425 28.9139 33.2817C29.1748 33.0209 29.3213 32.6671 29.3213 32.2983V30.838C30.1066 30.6777 30.8124 30.251 31.3193 29.6301C31.8262 29.0091 32.103 28.2322 32.1028 27.4307V16.3046H32.7982C33.3514 16.3046 33.8821 16.0848 34.2733 15.6936C34.6645 15.3024 34.8843 14.7718 34.8843 14.2185V9.35087C34.8843 8.79759 34.6645 8.26698 34.2733 7.87575C33.8821 7.48453 33.3514 7.26474 32.7982 7.26474ZM6.37387 19.7815C5.82059 19.7815 5.28997 19.5617 4.89875 19.1705C4.50752 18.7793 4.28774 18.2487 4.28774 17.6954V7.96011C4.28774 7.77569 4.361 7.59882 4.49141 7.46841C4.62182 7.338 4.79869 7.26474 4.98311 7.26474H16.8045V19.7815H6.37387ZM18.1953 7.26474H30.0167C30.2011 7.26474 30.378 7.338 30.5084 7.46841C30.6388 7.59882 30.712 7.77569 30.712 7.96011V17.6954C30.712 18.2487 30.4922 18.7793 30.101 19.1705C29.7098 19.5617 29.1792 19.7815 28.6259 19.7815H18.1953V7.26474ZM6.37387 1.70173H28.6259C29.1792 1.70173 29.7098 1.92151 30.101 2.31274C30.4922 2.70396 30.712 3.23458 30.712 3.78786V5.99915C30.489 5.9182 30.2539 5.87587 30.0167 5.87399H4.98311C4.74589 5.87587 4.51073 5.9182 4.28774 5.99915V3.78786C4.28774 3.23458 4.50752 2.70396 4.89875 2.31274C5.28997 1.92151 5.82059 1.70173 6.37387 1.70173ZM2.20161 14.9139C2.01718 14.9139 1.84031 14.8406 1.7099 14.7102C1.57949 14.5798 1.50623 14.4029 1.50623 14.2185V9.35087C1.50623 9.16644 1.57949 8.98957 1.7099 8.85916C1.84031 8.72875 2.01718 8.65549 2.20161 8.65549H2.89698V14.9139H2.20161ZM11.2415 32.2983H7.06924V30.9075H11.2415V32.2983ZM23.7583 32.2983V30.9075H27.9305V32.2983H23.7583ZM28.6259 29.5168H6.37387C5.82059 29.5168 5.28997 29.297 4.89875 28.9058C4.50752 28.5145 4.28774 27.9839 4.28774 27.4307V20.4769C4.88765 20.9319 5.62091 21.1764 6.37387 21.1723H28.6259C29.3789 21.1764 30.1121 20.9319 30.712 20.4769V27.4307C30.712 27.9839 30.4922 28.5145 30.101 28.9058C29.7098 29.297 29.1792 29.5168 28.6259 29.5168ZM33.4935 14.2185C33.4935 14.4029 33.4203 14.5798 33.2899 14.7102C33.1595 14.8406 32.9826 14.9139 32.7982 14.9139H32.1028V8.65549H32.7982C32.9826 8.65549 33.1595 8.72875 33.2899 8.85916C33.4203 8.98957 33.4935 9.16644 33.4935 9.35087V14.2185Z"/>
</mask>
<path d="M32.7982 7.26474H32.1028V3.78786C32.1028 2.86573 31.7365 1.98137 31.0844 1.32933C30.4324 0.677287 29.548 0.310974 28.6259 0.310974H6.37387C5.45174 0.310974 4.56738 0.677287 3.91534 1.32933C3.2633 1.98137 2.89698 2.86573 2.89698 3.78786V7.26474H2.20161C1.64833 7.26474 1.11772 7.48453 0.726492 7.87575C0.335267 8.26698 0.115479 8.79759 0.115479 9.35087V14.2185C0.115479 14.7718 0.335267 15.3024 0.726492 15.6936C1.11772 16.0848 1.64833 16.3046 2.20161 16.3046H2.89698V27.4307C2.89682 28.2322 3.17359 29.0091 3.68046 29.6301C4.18733 30.251 4.89316 30.6777 5.67849 30.838V32.2983C5.67849 32.6671 5.82501 33.0209 6.08583 33.2817C6.34665 33.5425 6.70039 33.689 7.06924 33.689H11.2415C11.6104 33.689 11.9641 33.5425 12.2249 33.2817C12.4857 33.0209 12.6323 32.6671 12.6323 32.2983V30.9075H22.3675V32.2983C22.3675 32.6671 22.514 33.0209 22.7749 33.2817C23.0357 33.5425 23.3894 33.689 23.7583 33.689H27.9305C28.2994 33.689 28.6531 33.5425 28.9139 33.2817C29.1748 33.0209 29.3213 32.6671 29.3213 32.2983V30.838C30.1066 30.6777 30.8124 30.251 31.3193 29.6301C31.8262 29.0091 32.103 28.2322 32.1028 27.4307V16.3046H32.7982C33.3514 16.3046 33.8821 16.0848 34.2733 15.6936C34.6645 15.3024 34.8843 14.7718 34.8843 14.2185V9.35087C34.8843 8.79759 34.6645 8.26698 34.2733 7.87575C33.8821 7.48453 33.3514 7.26474 32.7982 7.26474ZM6.37387 19.7815C5.82059 19.7815 5.28997 19.5617 4.89875 19.1705C4.50752 18.7793 4.28774 18.2487 4.28774 17.6954V7.96011C4.28774 7.77569 4.361 7.59882 4.49141 7.46841C4.62182 7.338 4.79869 7.26474 4.98311 7.26474H16.8045V19.7815H6.37387ZM18.1953 7.26474H30.0167C30.2011 7.26474 30.378 7.338 30.5084 7.46841C30.6388 7.59882 30.712 7.77569 30.712 7.96011V17.6954C30.712 18.2487 30.4922 18.7793 30.101 19.1705C29.7098 19.5617 29.1792 19.7815 28.6259 19.7815H18.1953V7.26474ZM6.37387 1.70173H28.6259C29.1792 1.70173 29.7098 1.92151 30.101 2.31274C30.4922 2.70396 30.712 3.23458 30.712 3.78786V5.99915C30.489 5.9182 30.2539 5.87587 30.0167 5.87399H4.98311C4.74589 5.87587 4.51073 5.9182 4.28774 5.99915V3.78786C4.28774 3.23458 4.50752 2.70396 4.89875 2.31274C5.28997 1.92151 5.82059 1.70173 6.37387 1.70173ZM2.20161 14.9139C2.01718 14.9139 1.84031 14.8406 1.7099 14.7102C1.57949 14.5798 1.50623 14.4029 1.50623 14.2185V9.35087C1.50623 9.16644 1.57949 8.98957 1.7099 8.85916C1.84031 8.72875 2.01718 8.65549 2.20161 8.65549H2.89698V14.9139H2.20161ZM11.2415 32.2983H7.06924V30.9075H11.2415V32.2983ZM23.7583 32.2983V30.9075H27.9305V32.2983H23.7583ZM28.6259 29.5168H6.37387C5.82059 29.5168 5.28997 29.297 4.89875 28.9058C4.50752 28.5145 4.28774 27.9839 4.28774 27.4307V20.4769C4.88765 20.9319 5.62091 21.1764 6.37387 21.1723H28.6259C29.3789 21.1764 30.1121 20.9319 30.712 20.4769V27.4307C30.712 27.9839 30.4922 28.5145 30.101 28.9058C29.7098 29.297 29.1792 29.5168 28.6259 29.5168ZM33.4935 14.2185C33.4935 14.4029 33.4203 14.5798 33.2899 14.7102C33.1595 14.8406 32.9826 14.9139 32.7982 14.9139H32.1028V8.65549H32.7982C32.9826 8.65549 33.1595 8.72875 33.2899 8.85916C33.4203 8.98957 33.4935 9.16644 33.4935 9.35087V14.2185Z" fill="#5D9746" stroke="#138D47" stroke-width="2" mask="url(#path-1-inside-1_7244_22703)"/>
<path d="M11.9375 3.58847H23.0635C23.1153 3.58847 23.1655 3.60945 23.2021 3.64609C23.2385 3.68267 23.2588 3.73218 23.2588 3.78378C23.2588 3.8356 23.2388 3.88582 23.2021 3.92245C23.1655 3.95908 23.1153 3.9791 23.0635 3.9791H11.9375C11.8859 3.97908 11.8364 3.95881 11.7998 3.92245C11.7632 3.88582 11.7422 3.8356 11.7422 3.78378C11.7422 3.73199 11.7632 3.68271 11.7998 3.64609C11.8364 3.60946 11.8857 3.58849 11.9375 3.58847Z" fill="#5D9746" stroke="#138D47"/>
<path d="M7.40405 23.4418C7.63538 23.3879 7.87626 23.3874 8.10815 23.4389V23.4379L11.0427 24.0922C11.5495 24.2052 12.0024 24.4877 12.3269 24.893C12.6515 25.2985 12.8286 25.8033 12.8279 26.3227V26.7328C12.8279 26.9689 12.7339 27.1957 12.5671 27.3627C12.4002 27.5297 12.1734 27.6243 11.9373 27.6245H7.7644C7.34392 27.6244 6.9407 27.4569 6.64331 27.1596C6.34585 26.8621 6.17847 26.4582 6.17847 26.0375V24.9877L6.18823 24.81C6.208 24.6339 6.25775 24.4618 6.33472 24.3012C6.4373 24.0873 6.58629 23.899 6.77124 23.7504C6.95638 23.6018 7.17285 23.4958 7.40405 23.4418ZM8.02417 23.8246C7.85103 23.7852 7.67118 23.7849 7.4978 23.8237C7.32185 23.863 7.15664 23.9411 7.01538 24.0532L7.01147 24.0571C6.87279 24.1696 6.76087 24.3117 6.68433 24.4731C6.60806 24.6339 6.56875 24.8098 6.56909 24.9877V26.0375C6.56909 26.3546 6.6955 26.6591 6.91968 26.8832C7.14379 27.1072 7.44755 27.2328 7.7644 27.2328H12.4373V26.351H12.4363C12.4438 25.9167 12.3023 25.4927 12.0339 25.1508C11.7971 24.8491 11.4747 24.6279 11.1111 24.5141L10.9529 24.4721L8.02515 23.8246H8.02417Z" fill="#5D9746" stroke="#138D47"/>
<path d="M26.8906 23.4389C27.1223 23.3875 27.3626 23.388 27.5938 23.4418C27.8251 23.4958 28.0413 23.6017 28.2266 23.7504C28.4117 23.8991 28.5614 24.0871 28.6641 24.3012C28.7667 24.5154 28.8204 24.7502 28.8203 24.9877V26.0375C28.8203 26.4582 28.6529 26.8621 28.3555 27.1596C28.0581 27.4569 27.6548 27.6243 27.2344 27.6245H23.0615C22.8253 27.6244 22.5987 27.5297 22.4316 27.3627C22.2647 27.1957 22.1709 26.969 22.1709 26.7328V26.3227L22.1787 26.1284C22.2164 25.6784 22.3869 25.2478 22.6709 24.893C22.9955 24.4875 23.4491 24.2052 23.9561 24.0922L26.8906 23.4379V23.4389ZM27.0996 23.7758L26.9668 23.7983L24.0459 24.4438C23.6177 24.538 23.2356 24.7786 22.9648 25.1235C22.6967 25.4652 22.5541 25.8886 22.5615 26.3227V27.2328H27.2344C27.5512 27.2327 27.855 27.1072 28.0791 26.8832C28.3033 26.6591 28.4297 26.3546 28.4297 26.0375V24.9604C28.4301 24.7823 28.3898 24.6066 28.3135 24.4457C28.237 24.2845 28.1258 24.1422 27.9873 24.0297L27.9824 24.0258C27.8413 23.9139 27.6767 23.8357 27.501 23.7963C27.3691 23.7668 27.2332 23.76 27.0996 23.7758Z" fill="#5D9746" stroke="#138D47"/>
<path d="M15.4138 26.5375H19.5857C19.6375 26.5375 19.6877 26.5585 19.7244 26.5952C19.7608 26.6318 19.782 26.6812 19.782 26.7328C19.782 26.7847 19.761 26.8349 19.7244 26.8715C19.6877 26.908 19.6374 26.9282 19.5857 26.9282H15.4138C15.3622 26.9281 15.3127 26.9079 15.2761 26.8715C15.2395 26.8349 15.2185 26.7847 15.2185 26.7328C15.2185 26.6811 15.2395 26.6318 15.2761 26.5952C15.3127 26.5585 15.362 26.5376 15.4138 26.5375Z" fill="#5D9746" stroke="#138D47"/>
<path d="M14.719 23.7563H20.2825C20.3341 23.7564 20.3836 23.7774 20.4202 23.8139C20.4567 23.8505 20.4778 23.8999 20.4778 23.9516C20.4778 24.0034 20.4568 24.0536 20.4202 24.0903C20.3836 24.1267 20.334 24.1468 20.2825 24.1469H14.719C14.6674 24.1469 14.6179 24.1266 14.5813 24.0903C14.5447 24.0536 14.5237 24.0034 14.5237 23.9516C14.5237 23.8998 14.5447 23.8505 14.5813 23.8139C14.6179 23.7773 14.6672 23.7563 14.719 23.7563Z" fill="#5D9746" stroke="#138D47"/>
</svg>
