<svg width="34" height="37" viewBox="0 0 34 37" fill="none" xmlns="http://www.w3.org/2000/svg">
<path d="M19.9456 24.5H14.0547C13.6483 24.5 13.3184 24.8258 13.3184 25.2273V28.1364C13.3184 28.5378 13.6483 28.8636 14.0547 28.8636H19.9456C20.3521 28.8636 20.682 28.5378 20.682 28.1364V25.2273C20.682 24.8258 20.3521 24.5 19.9456 24.5ZM19.2093 27.4091H14.7911V25.9545H19.2093V27.4091Z" fill="#138D47"/>
<path d="M24.5002 24.5C23.2973 24.5 22.3184 25.4789 22.3184 26.6818C22.3184 27.8847 23.2973 28.8636 24.5002 28.8636C25.7031 28.8636 26.682 27.8847 26.682 26.6818C26.682 25.4789 25.7031 24.5 24.5002 24.5ZM24.5002 27.4091C24.0995 27.4091 23.7729 27.0825 23.7729 26.6818C23.7729 26.2811 24.0995 25.9545 24.5002 25.9545C24.9009 25.9545 25.2275 26.2811 25.2275 26.6818C25.2275 27.0825 24.9009 27.4091 24.5002 27.4091Z" fill="#138D47"/>
<path d="M9.50018 24.5C8.29727 24.5 7.31836 25.4789 7.31836 26.6818C7.31836 27.8847 8.29727 28.8636 9.50018 28.8636C10.7031 28.8636 11.682 27.8847 11.682 26.6818C11.682 25.4789 10.7031 24.5 9.50018 24.5ZM9.50018 27.4091C9.09945 27.4091 8.7729 27.0825 8.7729 26.6818C8.7729 26.2811 9.09945 25.9545 9.50018 25.9545C9.9009 25.9545 10.2275 26.2811 10.2275 26.6818C10.2275 27.0825 9.9009 27.4091 9.50018 27.4091Z" fill="#138D47"/>
<path d="M20.75 0.5H13.25C12.0095 0.5 11 1.5095 11 2.75V3.5H6.5C4.8455 3.5 3.5 4.8455 3.5 6.5V8.75V9.5H2C1.17275 9.5 0.5 10.1727 0.5 11V15.5C0.5 16.3273 1.17275 17 2 17H3.5V17.402V31.25C3.5 32.0772 4.17275 32.75 5 32.75H6.5V35C6.5 35.8273 7.17275 36.5 8 36.5H11C11.8273 36.5 12.5 35.8273 12.5 35V32.75H21.5V35C21.5 35.8273 22.1728 36.5 23 36.5H26C26.8272 36.5 27.5 35.8273 27.5 35V32.75H29C29.8272 32.75 30.5 32.0772 30.5 31.25V17.402V17H32C32.8273 17 33.5 16.3273 33.5 15.5V11C33.5 10.1727 32.8273 9.5 32 9.5H30.5V8.75V6.5C30.5 4.8455 29.1545 3.5 27.5 3.5H23V2.75C23 1.5095 21.9905 0.5 20.75 0.5ZM12.5 2.75C12.5 2.33675 12.8368 2 13.25 2H20.75C21.1632 2 21.5 2.33675 21.5 2.75V3.5H12.5V2.75ZM29 9.5V10.25V16.25V17.402C29 19.2477 27.4977 20.75 25.652 20.75H17.75V9.5H29ZM16.25 20.75H8.348C6.50225 20.75 5 19.2477 5 17.402V16.25V10.25V9.5H16.25V20.75ZM2 15.5V11H3.5V15.5H2ZM11.0007 35H8V32.75H11L11.0007 35ZM26.0007 35H23V32.75H26L26.0007 35ZM26.75 31.25H22.25H11.75H7.25H5V20.8993C5.8715 21.734 7.04975 22.25 8.348 22.25H25.6512C26.9503 22.25 28.1285 21.734 29 20.8993L29.0007 31.25H26.75ZM32 11L32.0007 15.5H30.5V11H32ZM29 6.5V8H5V6.5C5 5.67275 5.67275 5 6.5 5H11.75H22.25H27.5C28.3272 5 29 5.67275 29 6.5Z" fill="#138D47"/>
</svg>
