<svg width="34" height="37" viewBox="0 0 34 37" fill="none" xmlns="http://www.w3.org/2000/svg">
<path d="M30.5677 33.0362H3.43023C3.28556 33.0362 3.14682 32.9788 3.04453 32.8765C2.94223 32.7742 2.88477 32.6354 2.88477 32.4908C2.88477 32.3461 2.94223 32.2074 3.04453 32.1051C3.14682 32.0028 3.28556 31.9453 3.43023 31.9453H30.5677C30.7123 31.9453 30.8511 32.0028 30.9534 32.1051C31.0557 32.2074 31.1131 32.3461 31.1131 32.4908C31.1131 32.6354 31.0557 32.7742 30.9534 32.8765C30.8511 32.9788 30.7123 33.0362 30.5677 33.0362Z" fill="#138D47"/>
<path d="M29.0751 36.4988H25.0387C24.856 36.481 24.6785 36.4274 24.5166 36.341C24.3546 36.2546 24.2112 36.1371 24.0947 35.9953C23.9782 35.8534 23.8908 35.69 23.8375 35.5143C23.7842 35.3386 23.7661 35.1542 23.7841 34.9715V32.4869C23.7841 32.3422 23.8416 32.2035 23.9439 32.1012C24.0462 31.9989 24.1849 31.9414 24.3296 31.9414H29.7777C29.9224 31.9414 30.0611 31.9989 30.1634 32.1012C30.2657 32.2035 30.3232 32.3422 30.3232 32.4869V34.9715C30.3597 35.3394 30.2489 35.7068 30.0149 35.9931C29.7809 36.2795 29.443 36.4613 29.0751 36.4988ZM24.8794 33.0323V34.9715C24.8711 35.0529 24.8821 35.1351 24.9115 35.2115C24.9409 35.2878 24.9878 35.3562 25.0485 35.4111H29.0751C29.133 35.355 29.1776 35.2867 29.2059 35.2113C29.2342 35.1358 29.2454 35.055 29.2388 34.9747V33.0323H24.8794Z" fill="#138D47"/>
<path d="M8.95717 36.4988H4.92346C4.74074 36.481 4.56331 36.4274 4.40133 36.341C4.23935 36.2546 4.096 36.1371 3.97947 35.9953C3.86295 35.8534 3.77554 35.69 3.72224 35.5143C3.66895 35.3386 3.65082 35.1542 3.66889 34.9715V32.4869C3.66889 32.3422 3.72636 32.2035 3.82865 32.1012C3.93095 31.9989 4.06969 31.9414 4.21436 31.9414H9.66246C9.80713 31.9414 9.94587 31.9989 10.0482 32.1012C10.1505 32.2035 10.2079 32.3422 10.2079 32.4869V34.9715C10.2445 35.3398 10.1332 35.7076 9.8987 35.994C9.66417 36.2804 9.32551 36.462 8.95717 36.4988ZM4.762 33.0323V34.9715C4.75382 35.0528 4.76481 35.135 4.79408 35.2113C4.82335 35.2876 4.87008 35.3561 4.93055 35.4111H8.95717C9.01499 35.355 9.05965 35.2867 9.08794 35.2113C9.11624 35.1358 9.12746 35.055 9.12081 34.9747V33.0323H4.762Z" fill="#138D47"/>
<path d="M32.3242 33.0358H1.68158C1.26681 33.0353 0.869153 32.8704 0.575866 32.5771C0.282579 32.2838 0.117621 31.8862 0.117188 31.4714V22.1576C0.117764 21.5569 0.356488 20.981 0.781028 20.556C1.20557 20.1311 1.78128 19.8918 2.38196 19.8906H9.93665C10.0813 19.8906 10.2201 19.9481 10.3223 20.0504C10.4246 20.1527 10.4821 20.2914 10.4821 20.4361C10.4821 20.5808 10.4246 20.7195 10.3223 20.8218C10.2201 20.9241 10.0813 20.9816 9.93665 20.9816H2.38196C2.07028 20.9821 1.77155 21.1062 1.55121 21.3267C1.33088 21.5471 1.20691 21.8459 1.20648 22.1576V31.4714C1.20648 31.597 1.25636 31.7174 1.34516 31.8062C1.43395 31.895 1.55437 31.9449 1.67994 31.9449H32.3242C32.449 31.944 32.5683 31.8937 32.6561 31.8049C32.7438 31.7161 32.7927 31.5962 32.7922 31.4714V22.1576C32.7917 21.8463 32.6681 21.5478 32.4482 21.3274C32.2283 21.1071 31.9302 20.9827 31.6189 20.9816H24.0636C23.919 20.9816 23.7802 20.9241 23.6779 20.8218C23.5756 20.7195 23.5182 20.5808 23.5182 20.4361C23.5182 20.2914 23.5756 20.1527 23.6779 20.0504C23.7802 19.9481 23.919 19.8906 24.0636 19.8906H31.6189C32.2199 19.8912 32.7962 20.1302 33.2212 20.5552C33.6462 20.9802 33.8853 21.5565 33.8858 22.1576V31.4714C33.8861 31.8859 33.7218 32.2836 33.4289 32.5769C33.1361 32.8703 32.7387 33.0353 32.3242 33.0358Z" fill="#138D47"/>
<path d="M33.3395 29.1573H0.660699C0.516033 29.1573 0.377292 29.0999 0.274997 28.9976C0.172703 28.8953 0.115234 28.7565 0.115234 28.6119C0.115234 28.4672 0.172703 28.3285 0.274997 28.2262C0.377292 28.1239 0.516033 28.0664 0.660699 28.0664H33.3395C33.4842 28.0664 33.6229 28.1239 33.7252 28.2262C33.8275 28.3285 33.885 28.4672 33.885 28.6119C33.885 28.7565 33.8275 28.8953 33.7252 28.9976C33.6229 29.0999 33.4842 29.1573 33.3395 29.1573Z" fill="#138D47"/>
<path d="M26.2148 29.1599H7.78573C7.70224 29.1599 7.61987 29.1407 7.54495 29.1039C7.47004 29.067 7.40458 29.0134 7.35362 28.9473C7.30266 28.8812 7.26757 28.8042 7.25103 28.7224C7.2345 28.6406 7.23698 28.556 7.25827 28.4753L9.84759 18.6346C9.93343 18.3094 10.1244 18.0218 10.3908 17.8166C10.6572 17.6114 10.9841 17.5001 11.3203 17.5H22.6807C23.0171 17.5001 23.344 17.6115 23.6104 17.8168C23.8768 18.0221 24.0678 18.3099 24.1535 18.6351L26.7428 28.4753C26.7641 28.556 26.7666 28.6406 26.75 28.7224C26.7335 28.8042 26.6984 28.8812 26.6475 28.9473C26.5965 29.0134 26.531 29.067 26.4561 29.1039C26.3812 29.1407 26.2983 29.1599 26.2148 29.1599ZM8.4932 28.0689H25.5095L23.098 18.9128C23.0737 18.8206 23.0196 18.7391 22.9441 18.6809C22.8687 18.6226 22.7761 18.591 22.6807 18.5909H11.3198C11.2246 18.591 11.132 18.6225 11.0565 18.6806C10.9811 18.7387 10.9269 18.8201 10.9025 18.9122L8.4932 28.0689Z" fill="#138D47"/>
<path d="M21.5641 21.2667H12.4341C12.2895 21.2667 12.1507 21.2092 12.0484 21.1069C11.9461 21.0047 11.8887 20.8659 11.8887 20.7212C11.8887 20.5766 11.9461 20.4378 12.0484 20.3355C12.1507 20.2332 12.2895 20.1758 12.4341 20.1758H21.5641C21.7088 20.1758 21.8475 20.2332 21.9498 20.3355C22.0521 20.4378 22.1096 20.5766 22.1096 20.7212C22.1096 20.8659 22.0521 21.0047 21.9498 21.1069C21.8475 21.2092 21.7088 21.2667 21.5641 21.2667Z" fill="#138D47"/>
<path d="M21.5641 23.8722H12.4341C12.2895 23.8722 12.1507 23.8147 12.0484 23.7124C11.9461 23.6101 11.8887 23.4714 11.8887 23.3267C11.8887 23.182 11.9461 23.0433 12.0484 22.941C12.1507 22.8387 12.2895 22.7812 12.4341 22.7812H21.5641C21.7088 22.7812 21.8475 22.8387 21.9498 22.941C22.0521 23.0433 22.1096 23.182 22.1096 23.3267C22.1096 23.4714 22.0521 23.6101 21.9498 23.7124C21.8475 23.8147 21.7088 23.8722 21.5641 23.8722Z" fill="#138D47"/>
<path d="M21.5641 26.4776H12.4341C12.2895 26.4776 12.1507 26.4202 12.0484 26.3179C11.9461 26.2156 11.8887 26.0768 11.8887 25.9322C11.8887 25.7875 11.9461 25.6488 12.0484 25.5465C12.1507 25.4442 12.2895 25.3867 12.4341 25.3867H21.5641C21.7088 25.3867 21.8475 25.4442 21.9498 25.5465C22.0521 25.6488 22.1096 25.7875 22.1096 25.9322C22.1096 26.0768 22.0521 26.2156 21.9498 26.3179C21.8475 26.4202 21.7088 26.4776 21.5641 26.4776Z" fill="#138D47"/>
<path d="M29.4328 26.5324C29.0355 26.5325 28.6471 26.4148 28.3168 26.1942C27.9864 25.9735 27.7289 25.6599 27.5768 25.2929C27.4247 24.9259 27.3849 24.522 27.4624 24.1323C27.5399 23.7427 27.7312 23.3848 28.0121 23.1039C28.293 22.823 28.6509 22.6317 29.0405 22.5542C29.4302 22.4767 29.8341 22.5165 30.2011 22.6686C30.5681 22.8207 30.8817 23.0782 31.1024 23.4086C31.323 23.7389 31.4407 24.1273 31.4406 24.5246C31.4399 25.0569 31.2281 25.5672 30.8517 25.9435C30.4754 26.3199 29.9651 26.5317 29.4328 26.5324ZM29.4328 23.6071C29.2513 23.607 29.0739 23.6607 28.9229 23.7615C28.772 23.8622 28.6543 24.0055 28.5848 24.1731C28.5152 24.3407 28.497 24.5252 28.5323 24.7032C28.5677 24.8812 28.655 25.0448 28.7833 25.1731C28.9116 25.3015 29.0751 25.3889 29.253 25.4244C29.431 25.4598 29.6155 25.4417 29.7832 25.3723C29.9509 25.3028 30.0942 25.1852 30.195 25.0343C30.2959 24.8835 30.3497 24.7061 30.3497 24.5246C30.3494 24.2814 30.2527 24.0483 30.0809 23.8763C29.909 23.7044 29.6759 23.6075 29.4328 23.6071Z" fill="#138D47"/>
<path d="M4.56895 26.5324C4.1717 26.5324 3.78338 26.4146 3.45308 26.1939C3.12279 25.9732 2.86537 25.6595 2.71338 25.2925C2.56138 24.9255 2.52164 24.5216 2.59918 24.132C2.67672 23.7424 2.86805 23.3845 3.14899 23.1037C3.42992 22.8228 3.78784 22.6316 4.17746 22.5541C4.56709 22.4767 4.97093 22.5166 5.33791 22.6687C5.70489 22.8208 6.01852 23.0783 6.23914 23.4086C6.45976 23.739 6.57746 24.1273 6.57735 24.5246C6.57663 25.057 6.36478 25.5673 5.98827 25.9437C5.61177 26.3201 5.10134 26.5319 4.56895 26.5324ZM4.56895 23.6071C4.38749 23.6071 4.21011 23.6609 4.05923 23.7617C3.90835 23.8625 3.79076 24.0058 3.72132 24.1735C3.65187 24.3411 3.63371 24.5256 3.66911 24.7036C3.70451 24.8815 3.79189 25.045 3.9202 25.1733C4.04851 25.3016 4.21199 25.389 4.38996 25.4244C4.56793 25.4598 4.7524 25.4416 4.92005 25.3722C5.0877 25.3028 5.23099 25.1852 5.3318 25.0343C5.43261 24.8834 5.48642 24.706 5.48642 24.5246C5.48613 24.2813 5.38938 24.0481 5.21738 23.8761C5.04538 23.7041 4.81219 23.6074 4.56895 23.6071Z" fill="#138D47"/>
<path d="M30.2495 20.9817C30.1049 20.9817 29.9661 20.9242 29.8638 20.8219C29.7615 20.7196 29.7041 20.5809 29.7041 20.4362V2.35458C29.7041 2.2543 29.6843 2.15499 29.6459 2.06234C29.6076 1.96969 29.5513 1.88551 29.4804 1.8146C29.4095 1.74369 29.3253 1.68744 29.2327 1.64906C29.14 1.61068 29.0407 1.59093 28.9404 1.59093H5.06161C4.96133 1.59093 4.86203 1.61068 4.76937 1.64906C4.67672 1.68744 4.59254 1.74369 4.52163 1.8146C4.45072 1.88551 4.39447 1.96969 4.35609 2.06234C4.31771 2.15499 4.29796 2.2543 4.29796 2.35458V20.4362C4.29796 20.5809 4.24049 20.7196 4.1382 20.8219C4.0359 20.9242 3.89716 20.9817 3.7525 20.9817C3.60783 20.9817 3.46909 20.9242 3.36679 20.8219C3.2645 20.7196 3.20703 20.5809 3.20703 20.4362V2.35458C3.20703 1.86271 3.40242 1.391 3.75023 1.04319C4.09803 0.695393 4.56975 0.5 5.06161 0.5H28.9399C29.4317 0.5 29.9035 0.695393 30.2513 1.04319C30.5991 1.391 30.7945 1.86271 30.7945 2.35458V20.4362C30.7945 20.5808 30.7371 20.7194 30.6349 20.8217C30.5327 20.924 30.3941 20.9815 30.2495 20.9817Z" fill="#138D47"/>
<path d="M30.2481 5.96593H3.75054C3.60588 5.96593 3.46714 5.90846 3.36484 5.80617C3.26255 5.70387 3.20508 5.56513 3.20508 5.42046C3.20508 5.2758 3.26255 5.13706 3.36484 5.03476C3.46714 4.93247 3.60588 4.875 3.75054 4.875H30.2481C30.3928 4.875 30.5315 4.93247 30.6338 5.03476C30.7361 5.13706 30.7936 5.2758 30.7936 5.42046C30.7936 5.56513 30.7361 5.70387 30.6338 5.80617C30.5315 5.90846 30.3928 5.96593 30.2481 5.96593Z" fill="#138D47"/>
<path d="M21.9088 3.77843H12.0904C11.9457 3.77843 11.807 3.72096 11.7047 3.61867C11.6024 3.51637 11.5449 3.37763 11.5449 3.23296C11.5449 3.0883 11.6024 2.94956 11.7047 2.84726C11.807 2.74497 11.9457 2.6875 12.0904 2.6875H21.9088C22.0534 2.6875 22.1922 2.74497 22.2945 2.84726C22.3968 2.94956 22.4542 3.0883 22.4542 3.23296C22.4542 3.37763 22.3968 3.51637 22.2945 3.61867C22.1922 3.72096 22.0534 3.77843 21.9088 3.77843Z" fill="#138D47"/>
<path d="M17.0005 18.588C16.8559 18.588 16.7171 18.5305 16.6148 18.4282C16.5125 18.3259 16.4551 18.1872 16.4551 18.0425V5.42046C16.4551 5.2758 16.5125 5.13706 16.6148 5.03476C16.7171 4.93247 16.8559 4.875 17.0005 4.875C17.1452 4.875 17.284 4.93247 17.3862 5.03476C17.4885 5.13706 17.546 5.2758 17.546 5.42046V18.0425C17.546 18.1872 17.4885 18.3259 17.3862 18.4282C17.284 18.5305 17.1452 18.588 17.0005 18.588Z" fill="#138D47"/>
</svg>
