<svg width="42" height="27" viewBox="0 0 42 27" fill="none" xmlns="http://www.w3.org/2000/svg">
<g clip-path="url(#clip0_8211_8258)">
<path d="M36.7797 21.3725C36.7797 21.7531 36.4713 22.0615 36.0908 22.0615H22.312C21.9314 22.0615 21.623 21.7531 21.623 21.3725C21.623 20.992 21.9314 20.6836 22.312 20.6836H36.0908C36.4713 20.6836 36.7797 20.992 36.7797 21.3725Z" fill="#138D47"/>
<path d="M38.7155 0.34375H3.28429C1.82112 0.34375 0.626953 1.53791 0.626953 3.00109V23.9974C0.626953 25.4605 1.82112 26.6547 3.28429 26.6547H38.7155C40.1787 26.6547 41.3728 25.4605 41.3728 23.9974V3.00109C41.3728 1.53791 40.1787 0.34375 38.7155 0.34375ZM39.995 23.9974C39.995 24.6994 39.4176 25.2768 38.7155 25.2768H3.28429C2.58223 25.2768 2.00483 24.6994 2.00483 23.9974V3.00109C2.00483 2.29903 2.58223 1.72163 3.28429 1.72163H38.7155C39.4176 1.72163 39.995 2.29903 39.995 3.00109V23.9974Z" fill="#138D47"/>
<path d="M14.984 12.9673L14.4525 12.6786L14.879 12.2456C16.539 10.5528 16.5193 7.8298 14.8331 6.16322C13.9932 5.34305 12.904 4.92969 11.8148 4.92969C10.7257 4.92969 9.59055 5.36274 8.7507 6.21571C7.11693 7.87573 7.11693 10.579 8.7507 12.2456L9.17719 12.6786L8.64572 12.9673C6.53297 14.1287 5.2207 16.3398 5.2207 18.7479V21.3724C5.2207 21.753 5.52909 22.0613 5.90964 22.0613H17.72C18.1006 22.0613 18.409 21.753 18.409 21.3724V18.7479C18.409 16.3398 17.0967 14.1287 14.984 12.9673ZM8.89505 9.23392C8.89505 7.6264 10.2073 6.31413 11.8148 6.31413C12.6153 6.31413 13.3502 6.6422 13.8751 7.17366C14.4066 7.69857 14.7346 8.43344 14.7346 9.23392C14.7346 10.8415 13.4224 12.1537 11.8148 12.1537C10.2073 12.1537 8.89505 10.8415 8.89505 9.23392ZM17.0311 20.6835H6.59858V18.7479C6.59858 15.874 8.94098 13.5316 11.8148 13.5316C14.6887 13.5316 17.0311 15.874 17.0311 18.7479V20.6835Z" fill="#138D47"/>
<path d="M30.8423 4.9375C27.5682 4.9375 24.9043 7.6014 24.9043 10.8755C24.9043 14.1496 27.5682 16.8135 30.8423 16.8135C34.1164 16.8135 36.7803 14.1496 36.7803 10.8755C36.7738 7.60796 34.1099 4.94406 30.8423 4.9375ZM30.1534 15.4225L29.5628 15.2519C28.4015 14.9107 27.4107 14.1102 26.8268 13.0473L26.5971 12.6143L27.0433 12.4109C27.87 12.0369 28.7361 11.7875 29.635 11.6694L30.1534 11.5973V15.4225ZM26.9252 10.9674L26.3019 11.2036V10.5343L26.3347 10.2128C26.4921 9.11051 27.0433 8.12631 27.8963 7.398C28.8214 6.61064 30.0025 6.23008 31.2163 6.33506C33.4472 6.51878 35.199 8.27066 35.3828 10.5015L35.4418 11.2364L34.7594 10.9674C32.2333 9.97004 29.4513 9.97004 26.9252 10.9674ZM34.8578 13.0473C34.2739 14.1102 33.2831 14.9107 32.1218 15.2519L31.5312 15.4225V11.5973L32.0496 11.6694C32.9485 11.7875 33.8146 12.0369 34.6413 12.4109L35.0875 12.6143L34.8578 13.0473Z" fill="#138D47"/>
</g>
<defs>
<clipPath id="clip0_8211_8258">
<rect width="40.7459" height="26.3109" fill="white" transform="translate(0.626953 0.34375)"/>
</clipPath>
</defs>
</svg>
