<svg width="47" height="24" viewBox="0 0 47 24" fill="none" xmlns="http://www.w3.org/2000/svg">
<path d="M4.64258 0.988495H34.167C36.5973 0.988577 38.8783 1.93361 40.5967 3.6506C42.3152 5.3678 43.2607 7.64774 43.2607 10.0754V18.3694C43.2594 19.1698 42.6077 19.8214 41.8076 19.8215H37.5127C37.3594 19.8215 37.2344 19.6965 37.2344 19.5432C37.2345 19.39 37.3594 19.2658 37.5127 19.2658H41.8076C42.3009 19.2658 42.7049 18.8659 42.7051 18.3694V10.0754C42.7051 7.79821 41.8167 5.65456 40.2051 4.04416C38.5933 2.43379 36.4467 1.5452 34.167 1.54514H4.64258C3.17513 1.54514 1.98253 2.73696 1.98242 4.20334V16.6067C1.98242 18.0734 3.17651 19.2658 4.64258 19.2658H9.24121C9.39443 19.2658 9.51933 19.3901 9.51953 19.5432C9.51953 19.6965 9.39455 19.8215 9.24121 19.8215H4.64258C2.86938 19.8215 1.42578 18.3793 1.42578 16.6067V4.20334C1.4258 2.43177 2.86941 0.988495 4.64258 0.988495Z" fill="#5D9746" stroke="#138D47" stroke-width="0.897455"/>
<path d="M15.6211 19.2619H31.1348C31.288 19.262 31.4121 19.387 31.4121 19.5403L31.4072 19.5959C31.3815 19.7224 31.2691 19.8175 31.1348 19.8176H15.6211C15.4678 19.8176 15.3428 19.6935 15.3428 19.5403C15.3428 19.387 15.4678 19.2619 15.6211 19.2619Z" fill="#5D9746" stroke="#138D47" stroke-width="0.897455"/>
<path d="M1.70312 4.46506H40.998C41.1512 4.46519 41.2754 4.59022 41.2754 4.74338C41.2754 4.89657 41.1513 5.02059 40.998 5.02072H1.70312C1.54983 5.02072 1.42482 4.8966 1.4248 4.74338C1.4248 4.59014 1.54982 4.46506 1.70312 4.46506Z" fill="#5D9746" stroke="#138D47" stroke-width="0.897455"/>
<path d="M1.70117 10.4962H35.9346C35.9881 10.4962 36.0418 10.5122 36.0879 10.5421L36.1309 10.5773L39.832 14.1847L39.9365 14.2863L40.0791 14.3078L43.0215 14.7482C43.1725 14.7709 43.2766 14.9107 43.2539 15.0636V15.0666C43.2344 15.2014 43.1173 15.3009 42.9824 15.3009C42.9682 15.3009 42.9521 15.2993 42.9355 15.297H42.9346L39.7666 14.8224C39.7093 14.8138 39.6551 14.7875 39.6113 14.7453L35.9531 11.1798L35.8223 11.0519H1.70117C1.54785 11.0519 1.42287 10.9278 1.42285 10.7746C1.42285 10.6213 1.54783 10.4962 1.70117 10.4962Z" fill="#5D9746" stroke="#138D47" stroke-width="0.897455"/>
<path d="M8.85449 4.46506C9.00783 4.46506 9.13281 4.5901 9.13281 4.74338V10.7678C9.13284 10.9209 9.00791 11.0461 8.85449 11.0461C8.70115 11.0461 8.57617 10.9211 8.57617 10.7678V4.74338C8.57617 4.5901 8.70115 4.46506 8.85449 4.46506Z" fill="#5D9746" stroke="#138D47" stroke-width="0.897455"/>
<path d="M17.2329 4.46506C17.3862 4.46506 17.5112 4.5901 17.5112 4.74338V10.7678C17.5112 10.9211 17.3862 11.0461 17.2329 11.0461C17.0796 11.0461 16.9546 10.9211 16.9546 10.7678V4.74338C16.9546 4.59009 17.0796 4.46506 17.2329 4.46506Z" fill="#5D9746" stroke="#138D47" stroke-width="0.897455"/>
<path d="M25.6113 4.46506C25.7647 4.46506 25.8896 4.59009 25.8896 4.74338V10.7678C25.8897 10.9209 25.7647 11.0461 25.6113 11.0461C25.458 11.0461 25.333 10.9211 25.333 10.7678V4.74338C25.333 4.5901 25.458 4.46506 25.6113 4.46506Z" fill="#5D9746" stroke="#138D47" stroke-width="0.897455"/>
<path d="M33.9912 4.46506C34.1445 4.46506 34.2695 4.5901 34.2695 4.74338V10.7678C34.2695 10.9211 34.1445 11.0461 33.9912 11.0461C33.8379 11.0461 33.7129 10.9211 33.7129 10.7678V4.74338C33.7129 4.59009 33.8379 4.46506 33.9912 4.46506Z" fill="#5D9746" stroke="#138D47" stroke-width="0.897455"/>
<path d="M42.9819 7.92795H44.4731C44.5838 7.92802 44.6844 7.99455 44.729 8.09787L45.5542 10.0315C45.6141 10.1727 45.5485 10.3352 45.4067 10.3957C45.371 10.4107 45.3352 10.4182 45.2993 10.4182C45.1895 10.4182 45.0876 10.3532 45.0435 10.2492L44.4067 8.75705L44.2896 8.48361H42.9819C42.8286 8.48361 42.7036 8.35949 42.7036 8.20627C42.7036 8.05306 42.8287 7.92795 42.9819 7.92795Z" fill="#5D9746" stroke="#138D47" stroke-width="0.897455"/>
<path d="M34.3228 16.0822C36.2346 16.0825 37.7896 17.6383 37.7896 19.5471C37.7894 21.457 36.2346 23.0107 34.3228 23.011C32.4108 23.011 30.8551 21.456 30.855 19.5471C30.855 17.6381 32.4107 16.0822 34.3228 16.0822ZM34.3228 16.6389C32.7181 16.6389 31.4116 17.9428 31.4116 19.5471C31.4117 21.1514 32.7182 22.4553 34.3228 22.4553C35.9272 22.4551 37.2337 21.1511 37.2339 19.5471C37.2339 17.943 35.9286 16.6391 34.3228 16.6389Z" fill="#5D9746" stroke="#138D47" stroke-width="0.897455"/>
<path d="M12.4302 16.0822C14.342 16.0825 15.897 17.6383 15.897 19.5471C15.8969 21.4569 14.3408 23.0107 12.4302 23.011C10.5182 23.011 8.96252 21.456 8.9624 19.5471C8.9624 17.6381 10.5182 16.0822 12.4302 16.0822ZM12.4302 16.6389C10.8255 16.6389 9.51904 17.9428 9.51904 19.5471C9.51916 21.1514 10.8256 22.4553 12.4302 22.4553C14.0346 22.4551 15.3412 21.1512 15.3413 19.5471C15.3413 17.9428 14.0347 16.6391 12.4302 16.6389Z" fill="#5D9746" stroke="#138D47" stroke-width="0.897455"/>
</svg>
