<svg width="41" height="24" viewBox="0 0 41 24" fill="none" xmlns="http://www.w3.org/2000/svg">
<path d="M30.9801 23.3218C28.3155 23.3218 26.1482 21.1545 26.1482 18.4899C26.1482 15.8253 28.3155 13.6581 30.9801 13.6581C33.6446 13.6581 35.8119 15.8253 35.8119 18.4899C35.8119 21.1545 33.6446 23.3218 30.9801 23.3218ZM30.9801 14.8553C28.9724 14.8553 27.3393 16.4884 27.3393 18.4961C27.3393 20.5037 28.9724 22.1369 30.9801 22.1369C32.9877 22.1369 34.6208 20.5037 34.6208 18.4961C34.6208 16.4884 32.9877 14.8553 30.9801 14.8553Z" fill="#138D47"/>
<path d="M30.98 21.1037C29.5372 21.1037 28.3645 19.9311 28.3645 18.4882C28.3645 17.0454 29.5372 15.8728 30.98 15.8728C32.4228 15.8728 33.5954 17.0454 33.5954 18.4882C33.5954 19.9311 32.4228 21.1037 30.98 21.1037ZM30.98 17.07C30.1941 17.07 29.5556 17.7085 29.5556 18.4944C29.5556 19.2803 30.1941 19.9188 30.98 19.9188C31.7658 19.9188 32.4044 19.2803 32.4044 18.4944C32.4044 17.7085 31.7658 17.07 30.98 17.07Z" fill="#138D47"/>
<path d="M9.23982 23.3218C6.57524 23.3218 4.40796 21.1545 4.40796 18.4899C4.40796 15.8253 6.57524 13.6581 9.23982 13.6581C11.9044 13.6581 14.0717 15.8253 14.0717 18.4899C14.0717 21.1545 11.9044 23.3218 9.23982 23.3218ZM9.23982 14.8553C7.23217 14.8553 5.59904 16.4884 5.59904 18.4961C5.59904 20.5037 7.23217 22.1369 9.23982 22.1369C11.2475 22.1369 12.8806 20.5037 12.8806 18.4961C12.8806 16.4884 11.2475 14.8553 9.23982 14.8553Z" fill="#138D47"/>
<path d="M9.23974 21.1037C7.79693 21.1037 6.62427 19.9311 6.62427 18.4882C6.62427 17.0454 7.79693 15.8728 9.23974 15.8728C10.6825 15.8728 11.8552 17.0454 11.8552 18.4882C11.8552 19.9311 10.6825 21.1037 9.23974 21.1037ZM9.23974 17.07C8.45387 17.07 7.81535 17.7085 7.81535 18.4944C7.81535 19.2803 8.45387 19.9188 9.23974 19.9188C10.0256 19.9188 10.6641 19.2803 10.6641 18.4944C10.6641 17.7085 10.0256 17.07 9.23974 17.07Z" fill="#138D47"/>
<path d="M26.7436 19.0912H13.482C13.1505 19.0912 12.8865 18.8272 12.8865 18.4957C12.8865 18.1641 13.1505 17.9001 13.482 17.9001H26.7497C27.0812 17.9001 27.3452 18.1641 27.3452 18.4957C27.3391 18.8211 27.0751 19.0912 26.7436 19.0912Z" fill="#138D47"/>
<path d="M38.2862 19.0924H35.2164C34.8849 19.0924 34.6209 18.8284 34.6209 18.4968C34.6209 18.1653 34.8849 17.9013 35.2164 17.9013H38.2862C38.4704 17.9013 38.6362 17.8276 38.7651 17.6987C38.894 17.5698 38.9616 17.3979 38.9554 17.2137L38.8511 12.1178C38.7835 11.203 38.1511 10.3987 37.2486 10.0979L31.3239 8.12704C30.2863 7.78322 29.3654 7.23066 28.5918 6.47549L25.5527 3.55303C24.4291 2.46632 22.9434 1.87078 21.3778 1.87078H10.4861C9.07399 1.87078 7.71714 2.47246 6.7655 3.51619L4.05794 6.48777C2.98965 7.65429 2.35113 9.16464 2.25903 10.7425L2.04415 17.2075C2.03801 17.3917 2.10554 17.5636 2.23448 17.6987C2.36341 17.8338 2.53532 17.9013 2.7195 17.9013H5.00958C5.34111 17.9013 5.60512 18.1653 5.60512 18.4968C5.60512 18.8284 5.34111 19.0924 5.00958 19.0924H2.71336C2.20378 19.0924 1.73103 18.8898 1.37493 18.5275C1.01883 18.1653 0.834647 17.6741 0.853065 17.1646L1.06795 10.675C1.17846 8.80854 1.9275 7.04033 3.17384 5.67734L5.8814 2.70577C7.0602 1.41645 8.73631 0.673553 10.4861 0.673553H21.3839C23.2565 0.673553 25.037 1.39189 26.3815 2.68735L29.4206 5.61594C30.0653 6.24218 30.8327 6.70879 31.6984 6.99121L37.6231 8.96203C38.98 9.41022 39.9316 10.6259 40.036 12.0564L40.1465 17.1891C40.1588 17.6926 39.9685 18.1714 39.6124 18.5337C39.2624 18.8898 38.7897 19.0924 38.2862 19.0924Z" fill="#138D47"/>
<path d="M28.4877 9.17032H5.00373C4.79498 9.17032 4.59851 9.0598 4.49414 8.87562C4.38977 8.69757 4.38363 8.4704 4.48186 8.28621C4.58009 8.10817 6.91314 3.90867 9.78033 3.01842C9.83559 3.00001 9.89699 2.99387 9.95838 2.99387H21.8078C23.0296 2.99387 24.1777 3.54643 24.9513 4.51649C25.731 5.49269 27.1615 6.94778 28.8254 8.08975C29.0403 8.2371 29.1324 8.50724 29.0587 8.75896C28.9789 8.99841 28.7456 9.17032 28.4877 9.17032ZM6.07202 7.97923H26.7256C25.5775 7.02145 24.6197 6.00842 24.0181 5.25324C23.4716 4.57175 22.6674 4.17881 21.8078 4.17881H10.0505C8.39279 4.7498 6.85175 6.78815 6.07202 7.97923Z" fill="#138D47"/>
<path d="M15.5018 9.16968C15.2685 9.16968 15.0536 9.03461 14.9554 8.80744C13.7643 6.04462 15.772 3.33705 15.8579 3.22653C16.0544 2.96253 16.4289 2.91342 16.6929 3.10988C16.9569 3.30635 17.006 3.68087 16.8096 3.94487C16.7911 3.97557 15.1334 6.22267 16.0482 8.34083C16.1772 8.64167 16.0421 8.99163 15.7351 9.12056C15.6615 9.1574 15.5816 9.16968 15.5018 9.16968Z" fill="#138D47"/>
<path d="M2.86091 16.385H1.49178C1.16024 16.385 0.89624 16.121 0.89624 15.7894C0.89624 15.4579 1.16024 15.1939 1.49178 15.1939H2.86091C2.95915 15.1939 3.0451 15.1202 3.05124 15.022L3.24157 12.4679C3.24771 12.3942 3.21701 12.3451 3.19245 12.3206C3.17403 12.296 3.12492 12.2592 3.0451 12.2592H1.63299C1.30145 12.2592 1.03745 11.9952 1.03745 11.6636C1.03745 11.3321 1.30145 11.0681 1.63299 11.0681H3.05124C3.43803 11.0681 3.81255 11.2277 4.07041 11.5101C4.32828 11.7926 4.46335 12.1732 4.42651 12.56L4.23618 15.1018C4.19935 15.8201 3.59152 16.385 2.86091 16.385Z" fill="#138D47"/>
<path d="M6.82715 10.896H5.63607C5.30453 10.896 5.04053 10.632 5.04053 10.3004C5.04053 9.9689 5.30453 9.7049 5.63607 9.7049H6.82715C7.15869 9.7049 7.42269 9.9689 7.42269 10.3004C7.42269 10.6258 7.15869 10.896 6.82715 10.896Z" fill="#138D47"/>
<path d="M17.344 10.896H16.1529C15.8214 10.896 15.5574 10.632 15.5574 10.3004C15.5574 9.9689 15.8214 9.7049 16.1529 9.7049H17.344C17.6755 9.7049 17.9395 9.9689 17.9395 10.3004C17.9334 10.6258 17.6694 10.896 17.344 10.896Z" fill="#138D47"/>
<path d="M39.4958 15.2233H38.0591C37.1136 15.2233 36.2725 14.6585 35.9778 13.8174C35.634 12.8227 35.7752 11.3247 38.3907 9.82047C38.6792 9.6547 39.0415 9.75293 39.2011 10.0415C39.3669 10.3239 39.2686 10.6923 38.9801 10.8519C37.9241 11.4597 36.7453 12.393 37.1013 13.4244C37.2303 13.7867 37.6171 14.0322 38.0591 14.0322H39.4958C39.8273 14.0322 40.0913 14.2962 40.0913 14.6278C40.0913 14.9593 39.8212 15.2233 39.4958 15.2233Z" fill="#138D47"/>
</svg>
