<svg version="1.2" xmlns="http://www.w3.org/2000/svg" viewBox="0 0 227 100" width="227" height="100">
	<style>
		.s0 { fill: none } 
		.s1 { fill: #3d3d3d } 
	</style>
	<path fill-rule="evenodd" class="s0" d="m-15-78h256v256h-256z"/>
	<path class="s1" d="m0.51 1.01c13.5 0.6 27.67-0.79 41.1 0 33.59 2.01 48.27 30.91 42.57 61.91-3.92 21.33-20.2 35.54-41.92 36.83-13.62 0.81-28.04-0.63-41.74-0.01v-98.73zm25.63 73.41h14.85c17.69 0 21.27-20.54 17.57-34.12-4.36-16.04-19.39-13.74-32.74-13.68z"/>
	<path class="s1" d="m226.48 1.01v25.3c-0.69 0.06-1.32 0.26-2.02 0.33-22.11 2.02-51.35-9.26-50.82 24.53 0.19 11.57 5.71 23.26 18.92 23.26h33.91v25.3c-18.32-1.09-38.19 3.42-55.02-5.45-6.03-3.19-12.01-8.3-15.25-14.34 9.58-17.77 8.79-39.86-1.31-57.21 7.39-13.62 22.25-20.88 37.36-21.73 11.19-0.63 22.98 0.5 34.23 0.01z"/>
	<path class="s1" d="m145.84 87.54c-4.75-7.01-11.11-13.5-17.5-19.05 0.67 0 0.85-0.37 1.19-0.83 8.58-11.43 5.88-41.03-12.29-41.03h-16.73v23.75c-1.99-0.94-4.2-1.64-6.25-2.49-0.98-0.41-3.08-1.81-4.06-1.26-0.74-0.44-1.44-0.4-2.05-1.54-1.15-11.24-6.11-21.85-13.27-30.48v-13.6c23.36 1.57 50.66-5.71 69.85 11.26 19.95 17.64 19.81 56.7 1.1 75.27z"/>
	<path class="s1" d="m88.16 45.07c2.05 0.87 10.38 4.36 12.37 5.3 10.03 4.72 19.47 10.86 27.82 18.11 6.39 5.55 12.74 12.04 17.5 19.05-0.54 0.54-5.01 4.56-5.3 4.37-10.92-18.55-32.64-35.2-51.36-45.76q-0.68-0.38-1.02-1.08z"/>
	<path class="s1" d="m111.78 99.72h-13.76l2.9-17 9.77-1.2c1.23 5.94 1.74 12.68 1.08 18.2z"/>
	<path class="s1" d="m107.54 73.03c0.43 0.94 2.2 5.56 2.49 6.39l-9.19 1.25-1.87-12.49 5.62-0.81c1.22 1.78 2.06 3.72 2.95 5.66z"/>
	<path class="s1" d="m94.64 56.22c2.95 3.13 6.41 6.7 9.05 9.6l-0.74 0.11-4.62 0.56-5.46-12.05c0.53 0.61 1.1 1.09 1.78 1.79z"/>
</svg>